<?xml version="1.0" standalone="no"?>
<!DOCTYPE svg PUBLIC "-//W3C//DTD SVG 20010904//EN"
 "http://www.w3.org/TR/2001/REC-SVG-20010904/DTD/svg10.dtd">
<svg version="1.0" xmlns="http://www.w3.org/2000/svg"
 width="300.000000pt" height="75.000000pt" viewBox="0 0 300.000000 75.000000"
 preserveAspectRatio="xMidYMid meet">
<metadata>
Created by potrace 1.10, written by Peter Selinger 2001-2011
</metadata>
<g transform="translate(0.000000,75.000000) scale(0.100000,-0.100000)"
fill="#000000" stroke="none">
<path d="M121 738 c-25 -13 -49 -64 -50 -106 -2 -45 41 -61 73 -29 10 9 22 14
28 11 7 -4 8 -2 4 5 -6 8 -1 10 16 6 12 -3 34 1 48 8 20 10 25 20 25 50 1 36
-8 47 -20 27 -3 -5 -12 -10 -18 -9 -7 0 -2 7 11 16 12 8 22 19 22 23 0 12
-114 11 -139 -2z m94 -6 c-14 -10 -17 -32 -4 -32 5 0 7 -5 3 -11 -4 -8 0 -9
15 -4 17 5 21 2 21 -14 0 -12 -4 -21 -9 -21 -5 0 -16 -3 -24 -6 -9 -3 -17 1
-19 11 -2 14 -9 12 -42 -14 -49 -39 -66 -40 -66 -1 0 17 5 30 10 30 6 0 10 9
10 19 0 14 13 24 43 34 45 17 78 21 62 9z"/>
<path d="M175 698 c-6 -19 -8 -20 -12 -5 -2 9 -8 17 -13 17 -4 0 -6 -8 -3 -19
3 -14 -2 -20 -22 -25 -14 -4 -23 -11 -20 -16 9 -14 74 20 81 43 3 10 4 21 1
23 -2 3 -8 -6 -12 -18z"/>
<path d="M354 733 c-4 -10 -8 -22 -9 -28 0 -5 -4 -16 -9 -24 -6 -10 -5 -12 2
-7 7 4 12 1 12 -8 0 -9 4 -16 10 -16 5 0 7 -8 4 -17 -5 -14 -4 -15 4 -4 6 8
17 11 26 8 9 -4 16 -2 16 4 0 6 5 7 11 4 6 -4 17 3 26 15 8 12 21 19 29 16 8
-3 14 -1 14 4 0 5 6 7 14 4 8 -3 17 -1 21 5 3 6 1 11 -5 11 -6 0 -9 4 -6 9 3
5 16 7 29 4 18 -4 19 -3 7 6 -10 7 -11 11 -2 11 19 0 27 -4 25 -12 -2 -5 2 -8
7 -8 14 0 12 15 -3 28 -9 8 -36 -3 -100 -40 -48 -27 -94 -48 -101 -45 -14 6
-28 67 -15 67 4 0 9 7 13 15 8 21 -10 19 -20 -2z"/>
<path d="M390 730 c-18 -33 12 -35 82 -7 l63 26 -51 -2 c-36 -1 -50 -6 -47
-14 3 -8 -3 -13 -17 -13 -16 0 -20 4 -16 15 8 22 -2 18 -14 -5z"/>
<path d="M640 741 c0 -10 29 -36 34 -30 1 2 -6 12 -16 22 -10 9 -18 13 -18 8z"/>
<path d="M833 735 c0 -8 4 -12 9 -9 4 3 8 9 8 15 0 5 -4 9 -8 9 -5 0 -9 -7 -9
-15z"/>
<path d="M913 735 c-3 -9 -3 -19 1 -22 3 -4 6 2 6 12 0 15 2 16 18 4 15 -13
16 -12 3 4 -17 21 -20 21 -28 2z"/>
<path d="M1158 743 c7 -3 16 -2 19 1 4 3 -2 6 -13 5 -11 0 -14 -3 -6 -6z"/>
<path d="M1187 730 c-3 -11 -2 -18 2 -16 3 2 11 -7 18 -20 9 -20 9 -24 -5 -24
-10 0 -26 -7 -36 -15 -10 -8 -23 -12 -27 -9 -5 3 -9 0 -9 -6 0 -6 -5 -8 -12
-4 -6 4 -35 6 -63 5 -34 -1 -57 3 -66 12 -8 7 -20 12 -28 9 -10 -3 -11 0 -5 9
6 12 5 12 -8 1 -13 -11 -19 -9 -35 14 -18 24 -22 25 -43 14 -18 -9 -25 -10
-28 -1 -2 6 -8 11 -13 11 -6 0 -7 -5 -4 -11 4 -6 -1 -17 -11 -24 -26 -19 -35
-18 -27 3 4 12 0 10 -15 -7 -12 -13 -19 -28 -16 -32 3 -5 0 -9 -5 -9 -6 0 -11
-4 -11 -9 0 -4 10 -8 23 -8 45 -1 49 -3 44 -23 -3 -11 -1 -18 4 -14 5 3 9 1 9
-4 0 -12 -25 -33 -32 -27 -3 3 -5 -11 -6 -30 -1 -20 -4 -40 -7 -45 -4 -6 -2
-10 4 -10 6 0 13 -11 17 -25 3 -14 10 -25 14 -25 8 0 70 -121 70 -138 0 -9
-16 -7 -79 9 -8 2 -17 -4 -19 -14 -3 -15 5 -17 57 -17 34 0 61 -4 61 -9 0 -10
-127 -24 -140 -16 -17 11 -11 34 15 57 13 11 22 25 19 29 -7 11 -64 -41 -64
-58 0 -7 -6 -13 -12 -13 -7 -1 -1 -8 15 -16 15 -8 27 -21 27 -29 0 -8 5 -15
10 -15 6 0 10 5 10 11 0 5 5 7 10 4 6 -3 10 0 10 7 0 9 3 9 10 -2 7 -10 12
-11 18 -4 11 17 42 25 42 11 0 -8 3 -8 9 2 7 11 14 10 39 -8 17 -11 37 -21 45
-21 19 0 46 33 73 90 4 8 16 21 26 28 10 7 15 18 12 24 -4 7 -2 8 5 4 6 -4 24
2 39 12 15 11 48 23 73 27 39 6 51 3 83 -19 30 -20 42 -23 58 -15 10 6 30 9
45 7 l25 -3 -22 -28 c-12 -15 -19 -35 -17 -45 3 -12 5 -10 6 7 1 23 2 23 19 8
10 -10 23 -17 28 -17 5 0 15 -13 22 -30 24 -53 122 -51 108 3 -3 14 -1 17 12
12 38 -16 49 -16 62 0 13 16 20 34 22 62 1 7 6 9 11 6 5 -3 32 -7 61 -8 54 -3
236 -31 240 -37 1 -1 10 -15 19 -30 15 -24 66 -48 104 -48 20 0 53 42 53 67 0
13 6 25 13 27 96 28 170 74 165 105 -2 9 2 15 9 14 7 -2 24 17 39 42 27 47 34
51 62 37 9 -5 28 -6 42 -1 22 6 21 7 -12 10 -21 1 -46 3 -55 3 -23 1 -53 56
-40 73 13 17 -28 58 -61 60 -28 2 -42 -11 -42 -39 0 -11 8 -18 20 -18 12 0 17
5 14 14 -3 8 -1 17 5 21 7 3 11 -2 11 -14 0 -11 5 -23 10 -26 6 -3 17 -20 25
-36 15 -28 14 -31 -24 -88 -45 -65 -83 -94 -154 -113 -41 -10 -47 -16 -47 -38
0 -34 -36 -74 -59 -64 -9 3 -23 6 -31 7 -24 0 -40 18 -40 46 0 24 -4 26 -43
29 -23 1 -81 9 -129 17 -48 9 -100 14 -115 13 -16 -1 -33 1 -39 5 -6 4 -19 -2
-29 -13 -10 -11 -15 -20 -11 -20 4 0 2 -9 -4 -20 -11 -20 -60 -29 -60 -10 0 6
-6 10 -14 10 -9 0 -12 -7 -9 -19 5 -19 -20 -51 -41 -51 -21 0 -39 28 -38 60 0
17 -4 30 -9 30 -6 0 -17 16 -25 35 -16 38 -26 41 -87 23 -34 -10 -41 -10 -52
5 -7 9 -17 17 -24 17 -6 0 -11 4 -11 8 0 4 -16 8 -35 8 -19 0 -35 -4 -35 -8 0
-4 -10 -8 -23 -8 -36 0 -123 -69 -147 -118 -12 -23 -29 -46 -38 -51 -27 -14
-52 5 -52 39 0 17 -4 30 -10 30 -5 0 -13 12 -16 26 -4 15 -24 56 -45 93 -39
65 -48 104 -29 116 19 12 41 66 35 85 -5 15 -15 20 -40 20 -19 0 -37 5 -41 12
-5 8 3 9 29 5 20 -3 39 -2 42 4 3 5 -2 6 -12 3 -10 -3 -7 1 7 9 14 9 28 13 32
11 3 -2 9 0 13 6 3 5 11 10 18 10 6 0 -1 -11 -16 -25 -15 -14 -27 -32 -27 -40
0 -20 6 -19 31 6 16 16 28 19 47 14 80 -20 171 -33 197 -28 17 3 47 14 67 24
46 23 86 24 110 2 17 -15 18 -15 18 5 0 29 37 54 62 41 12 -6 24 -6 37 1 27
14 74 13 89 -2 10 -10 15 -10 22 2 13 20 12 33 -1 24 -8 -4 -9 0 -4 15 8 25
-9 28 -31 6 -12 -12 -20 -12 -36 -4 -16 9 -19 8 -13 -2 6 -9 3 -11 -9 -6 -10
4 -15 3 -11 -3 9 -14 -19 -12 -33 2 -8 8 -12 8 -12 1 0 -5 -11 -9 -25 -8 -14
2 -25 -1 -25 -7 0 -6 -6 -8 -14 -5 -10 4 -14 0 -11 -14 4 -21 -10 -26 -21 -7
-4 6 2 19 14 28 15 13 18 20 9 29 -14 14 -51 15 -42 1 4 -6 11 -8 16 -5 5 4 9
2 9 -3 0 -6 -7 -13 -16 -16 -22 -8 -24 -8 -24 8 0 8 -5 18 -10 21 -7 4 -9 -2
-4 -19 4 -16 2 -26 -5 -26 -6 0 -13 11 -17 25 -7 30 -20 32 -27 5z m1136 -140
c3 -11 1 -18 -4 -14 -5 3 -9 12 -9 20 0 20 7 17 13 -6z m-898 -308 c-21 -5
-40 12 -30 28 5 8 13 6 27 -7 18 -16 19 -18 3 -21z m115 -56 c0 -2 -8 -10 -17
-17 -16 -13 -17 -12 -4 4 13 16 21 21 21 13z"/>
<path d="M1550 743 c0 -17 17 -32 45 -43 24 -9 31 -8 41 5 9 12 13 13 17 3 4
-9 6 -10 6 -1 1 7 8 10 19 6 9 -3 14 -3 10 1 -3 4 -12 8 -20 10 -7 1 -19 5
-26 10 -8 4 -11 3 -10 -4 2 -7 -5 -14 -14 -15 -10 -2 -18 1 -18 6 0 5 5 9 12
9 6 0 8 3 5 6 -4 4 -13 1 -22 -6 -12 -10 -15 -10 -15 4 0 9 -7 16 -15 16 -8 0
-15 -3 -15 -7z"/>
<path d="M1727 733 c2 -6 15 -10 29 -8 18 2 22 -1 14 -10 -5 -6 -7 -15 -3 -18
3 -4 0 -7 -8 -7 -9 0 -23 -16 -32 -36 -12 -24 -22 -34 -32 -30 -8 3 -14 0 -12
-7 1 -7 -4 -11 -11 -9 -8 1 -11 -2 -8 -7 8 -12 -13 -19 -37 -13 -14 4 -15 7
-5 20 7 9 0 6 -16 -6 -16 -12 -33 -22 -37 -22 -5 0 -9 20 -9 45 0 41 2 45 24
43 15 -1 22 -7 19 -15 -3 -7 -1 -13 5 -13 5 0 13 7 16 16 3 9 13 14 21 11 8
-4 12 -1 9 6 -2 7 -26 12 -62 12 l-57 0 0 -36 c0 -22 -8 -45 -19 -58 -19 -21
-19 -21 20 -22 145 -5 158 -1 213 79 12 17 31 32 42 32 23 0 40 -38 28 -62
-12 -22 -2 -45 22 -51 17 -5 19 -2 12 16 -10 31 -7 65 7 82 14 17 56 20 65 5
4 -7 14 -5 28 5 28 19 57 19 85 -1 29 -20 30 -76 2 -104 -11 -11 -20 -22 -20
-24 0 -9 40 -13 45 -5 6 9 55 6 72 -4 13 -8 37 19 29 32 -4 5 -2 12 4 16 5 3
10 -3 10 -13 0 -12 9 -22 22 -25 21 -6 38 6 38 28 0 6 -4 4 -9 -4 -7 -11 -9
-11 -13 0 -3 8 2 19 10 25 11 8 13 17 7 30 -8 18 -9 17 -12 -4 -3 -12 -8 -20
-13 -17 -13 8 -60 -13 -60 -27 0 -8 -13 -13 -32 -14 -32 -1 -33 0 -33 42 0 26
-7 49 -18 61 -9 11 -14 23 -10 26 3 4 0 7 -7 7 -9 0 -7 7 6 23 l19 22 -26 -23
c-14 -12 -29 -19 -33 -15 -12 13 -39 12 -52 -2 -8 -7 -22 -12 -31 -10 -10 2
-21 4 -25 4 -4 1 -5 9 -1 19 3 11 0 9 -12 -6 -12 -17 -20 -20 -30 -12 -9 8
-14 5 -18 -12 l-6 -22 -19 22 c-13 15 -26 20 -37 16 -16 -7 -16 -5 -2 17 16
24 16 24 -22 24 -25 0 -37 -4 -34 -12z m483 -164 c0 -5 -4 -9 -10 -9 -5 0 -10
7 -10 16 0 8 5 12 10 9 6 -3 10 -10 10 -16z"/>
<path d="M2145 740 c3 -5 8 -10 11 -10 2 0 4 5 4 10 0 6 -5 10 -11 10 -5 0 -7
-4 -4 -10z"/>
<path d="M2191 747 c2 -1 13 -9 24 -17 19 -14 19 -14 6 3 -7 9 -18 17 -24 17
-6 0 -8 -1 -6 -3z"/>
<path d="M2350 737 c0 -8 -7 -18 -16 -21 -13 -5 -14 -9 -4 -21 10 -12 7 -15
-14 -21 -15 -3 -26 -13 -26 -23 0 -10 3 -12 8 -5 12 18 44 32 63 27 10 -3 17
-8 15 -12 -2 -3 25 -4 60 -3 84 5 82 20 -3 24 -54 2 -68 6 -71 20 -2 9 7 22
20 29 20 11 22 11 10 -3 -17 -21 -7 -26 64 -34 39 -4 54 -2 45 4 -7 5 -11 14
-8 19 3 5 -3 9 -13 9 -10 0 -17 -4 -14 -8 2 -4 -8 -6 -23 -5 -17 2 -28 8 -28
17 0 10 -12 16 -32 18 -24 2 -33 -1 -33 -11z"/>
<path d="M2636 742 c-3 -5 1 -9 9 -9 8 0 12 4 9 9 -3 4 -7 8 -9 8 -2 0 -6 -4
-9 -8z"/>
<path d="M2706 734 c-5 -14 -4 -15 9 -4 17 14 19 20 6 20 -5 0 -12 -7 -15 -16z"/>
<path d="M1009 723 c-12 -16 -12 -17 2 -6 9 7 20 9 24 5 5 -4 5 -1 1 6 -9 16
-11 15 -27 -5z"/>
<path d="M1085 730 c-3 -5 -1 -10 4 -10 6 0 11 5 11 10 0 6 -2 10 -4 10 -3 0
-8 -4 -11 -10z"/>
<path d="M2104 728 c-4 -7 -4 -10 1 -6 4 4 14 3 22 -4 11 -8 12 -7 7 6 -7 19
-20 21 -30 4z"/>
<path d="M2737 733 c-10 -9 -9 -23 1 -23 5 0 9 7 9 15 0 17 -1 18 -10 8z"/>
<path d="M2870 731 c0 -6 4 -13 10 -16 6 -3 7 1 4 9 -7 18 -14 21 -14 7z"/>
<path d="M280 726 c0 -2 7 -7 16 -10 8 -3 12 -2 9 4 -6 10 -25 14 -25 6z"/>
<path d="M1042 705 c-27 -31 -28 -38 -3 -30 12 3 21 1 24 -7 2 -7 3 -5 1 5 -1
9 5 22 14 28 15 9 15 10 -2 5 -13 -5 -17 -2 -12 9 8 21 3 19 -22 -10z"/>
<path d="M2242 714 c-7 -8 -8 -14 -3 -14 10 0 25 19 20 25 -2 1 -10 -3 -17
-11z"/>
<path d="M2073 696 c0 -12 5 -13 21 -4 31 16 32 18 4 18 -15 0 -25 -6 -25 -14z"/>
<path d="M935 690 c-3 -6 1 -7 9 -4 18 7 21 14 7 14 -6 0 -13 -4 -16 -10z"/>
<path d="M1665 690 c-3 -5 -1 -10 4 -10 6 0 11 5 11 10 0 6 -2 10 -4 10 -3 0
-8 -4 -11 -10z"/>
<path d="M2268 693 c6 -3 10 -9 6 -14 -8 -14 2 -11 14 4 8 10 6 13 -11 14 -12
0 -16 -1 -9 -4z"/>
<path d="M2114 678 c-4 -6 -3 -8 4 -4 5 3 13 0 15 -6 3 -8 6 -6 6 5 1 19 -14
23 -25 5z"/>
<path d="M2220 680 c8 -5 20 -10 25 -10 6 0 3 5 -5 10 -8 5 -19 10 -25 10 -5
0 -3 -5 5 -10z"/>
<path d="M2835 679 c-11 -16 -1 -19 13 -3 7 8 8 14 3 14 -5 0 -13 -5 -16 -11z"/>
<path d="M1085 670 c-3 -5 -1 -10 4 -10 6 0 11 5 11 10 0 6 -2 10 -4 10 -3 0
-8 -4 -11 -10z"/>
<path d="M617 659 c7 -7 15 -10 18 -7 3 3 -2 9 -12 12 -14 6 -15 5 -6 -5z"/>
<path d="M1430 650 c-11 -11 -20 -32 -20 -46 0 -23 -2 -25 -16 -13 -11 9 -14
22 -10 42 5 23 3 28 -12 25 -38 -7 -15 -88 25 -88 19 0 62 -51 63 -73 0 -25
-49 -42 -67 -24 -14 14 -8 47 8 47 5 0 9 5 9 10 0 18 -37 -7 -43 -29 -7 -28
20 -61 49 -61 27 0 74 40 74 63 0 8 -9 26 -21 41 l-20 26 26 12 c30 13 43 52
25 73 -17 21 -46 19 -70 -5z m68 -22 c4 -21 -54 -55 -61 -35 -2 6 1 22 6 35
12 27 50 27 55 0z"/>
<path d="M2097 659 c7 -7 15 -10 18 -7 3 3 -2 9 -12 12 -14 6 -15 5 -6 -5z"/>
<path d="M2565 661 c-3 -5 -2 -12 3 -15 5 -3 9 1 9 9 0 17 -3 19 -12 6z"/>
<path d="M1960 640 c-11 -11 -20 -31 -20 -45 0 -14 -4 -25 -9 -25 -16 0 -25
22 -23 53 3 38 -22 31 -26 -7 -4 -32 13 -56 38 -56 18 0 70 -59 70 -79 0 -12
-33 -31 -55 -31 -24 0 -30 28 -10 50 10 11 14 20 8 20 -5 0 -18 -9 -28 -20
-25 -28 -7 -70 30 -70 20 0 25 -5 25 -26 0 -24 -2 -25 -51 -22 -40 2 -53 -1
-56 -12 -4 -12 -2 -12 5 -2 11 17 62 5 62 -14 0 -8 -5 -14 -11 -14 -5 0 -8 4
-5 8 2 4 -11 6 -31 4 -34 -4 -35 -3 -29 21 5 23 3 26 -37 32 -23 4 -67 14 -97
23 -104 29 -333 9 -387 -34 -17 -14 -16 -14 5 -4 13 6 40 10 60 8 31 -2 40 -9
52 -35 8 -18 21 -33 28 -33 7 0 12 -15 12 -40 0 -22 5 -40 10 -40 6 0 10 15
10 34 0 29 3 33 20 29 16 -4 20 0 20 21 0 16 5 26 15 26 10 0 15 -11 15 -35 0
-19 5 -35 10 -35 6 0 10 14 10 31 0 16 4 28 9 24 6 -3 15 3 21 14 9 17 15 19
36 11 14 -6 29 -8 34 -5 4 3 44 -2 88 -10 44 -8 113 -19 153 -23 l74 -7 6 -35
6 -35 3 40 c2 35 3 37 10 15 8 -24 8 -24 9 -2 1 15 7 22 21 22 16 0 20 -7 21
-32 l2 -33 6 34 c6 31 11 35 67 52 64 20 113 60 148 121 19 33 19 33 -1 16
-11 -10 -25 -18 -31 -18 -15 0 -16 47 0 56 8 5 9 0 5 -15 -3 -14 -1 -21 6 -18
7 2 13 13 15 25 6 38 -36 28 -53 -11 -20 -49 -42 -64 -62 -45 -8 9 -12 21 -9
27 11 17 29 13 22 -4 -6 -17 9 -21 20 -4 3 6 -1 18 -9 27 -21 20 -42 4 -51
-39 -7 -37 -26 -29 -26 12 0 16 -5 29 -11 29 -5 0 -9 -13 -7 -30 2 -16 -1 -28
-7 -27 -5 1 -9 12 -7 24 1 12 -2 24 -8 28 -6 3 -10 -4 -10 -17 0 -13 -4 -30
-10 -38 -8 -13 -10 -13 -14 0 -3 8 -6 24 -8 35 -2 11 -10 20 -18 20 -8 0 -22
11 -31 25 -15 24 -15 26 7 38 33 17 43 61 19 79 -26 18 -42 16 -65 -7z m64
-15 c6 -18 -27 -55 -49 -55 -19 0 -19 20 1 48 18 26 39 29 48 7z m16 -149 c0
-8 -4 -18 -10 -21 -5 -3 -10 3 -10 14 0 12 5 21 10 21 6 0 10 -6 10 -14z m217
-44 c-15 -19 -83 -52 -106 -52 -11 0 -29 -9 -39 -20 -18 -20 -82 -26 -82 -8 0
4 16 6 35 4 19 -1 35 1 35 6 0 4 -27 8 -59 8 -43 0 -60 -4 -65 -15 -6 -17 -46
-21 -46 -4 0 5 5 7 10 4 6 -3 10 -1 10 5 0 6 5 8 10 5 9 -6 14 14 11 43 -1 6
3 12 9 12 5 0 10 7 10 16 0 13 3 14 14 5 7 -6 21 -9 30 -5 9 3 16 1 16 -5 0
-15 27 -14 33 2 2 6 9 -4 15 -23 6 -19 11 -29 11 -22 1 7 8 20 16 28 13 14 15
13 15 -3 1 -16 2 -16 12 2 16 29 16 29 34 14 15 -12 19 -11 37 13 15 20 22 24
32 15 10 -9 10 -16 2 -25z m-597 -31 c0 -8 -3 -12 -6 -8 -4 3 -19 0 -35 -8
-16 -9 -40 -12 -57 -9 -24 5 -31 2 -37 -15 -4 -14 -13 -20 -27 -18 -19 3 -48
32 -48 48 0 16 59 28 133 26 60 -1 77 -4 77 -16z m99 -10 c8 -5 -5 -7 -35 -4
-27 3 -51 7 -53 9 -9 8 75 3 88 -5z m71 -18 c0 -14 -2 -15 -9 -4 -7 11 -9 11
-14 0 -4 -10 -6 -9 -6 4 -1 9 6 17 14 17 8 0 15 -8 15 -17z m180 -23 c0 -5 -4
-10 -10 -10 -5 0 -10 5 -10 10 0 6 5 10 10 10 6 0 10 -4 10 -10z"/>
<path d="M2000 420 c0 -5 5 -10 11 -10 5 0 7 5 4 10 -3 6 -8 10 -11 10 -2 0
-4 -4 -4 -10z"/>
<path d="M316 633 c-6 -14 -5 -15 5 -6 7 7 10 15 7 18 -3 3 -9 -2 -12 -12z"/>
<path d="M693 643 c4 -3 1 -13 -6 -22 -11 -14 -10 -14 5 -2 16 12 16 31 1 31
-4 0 -3 -3 0 -7z"/>
<path d="M1747 595 c-27 -30 -44 -55 -40 -55 5 0 14 5 21 12 18 18 15 2 -8
-42 -24 -47 -34 -51 -25 -11 10 45 -12 48 -50 6 -21 -22 -39 -34 -46 -29 -9 5
-6 10 9 15 24 9 29 33 10 45 -6 4 -21 -4 -35 -20 -19 -22 -21 -31 -12 -42 13
-16 45 -18 54 -4 5 7 11 8 19 1 12 -10 55 -9 74 3 6 3 12 -3 14 -15 5 -32 38
-40 78 -18 l35 18 -45 -2 c-39 -2 -45 1 -48 19 -2 12 9 35 24 53 30 35 25 54
-6 26 -28 -25 -25 -7 6 38 41 60 23 61 -29 2z m-137 -85 c0 -5 -4 -10 -10 -10
-5 0 -10 5 -10 10 0 6 5 10 10 10 6 0 10 -4 10 -10z m67 -15 c-4 -8 -11 -15
-17 -15 -7 0 -7 6 0 21 13 23 26 19 17 -6z"/>
<path d="M2179 633 c-13 -16 -12 -17 4 -4 9 7 17 15 17 17 0 8 -8 3 -21 -13z"/>
<path d="M2409 633 c-13 -16 -12 -17 4 -4 9 7 17 15 17 17 0 8 -8 3 -21 -13z"/>
<path d="M2125 630 c-3 -6 1 -7 9 -4 18 7 21 14 7 14 -6 0 -13 -4 -16 -10z"/>
<path d="M565 619 c-4 -6 -5 -12 -2 -15 2 -3 7 2 10 11 7 17 1 20 -8 4z"/>
<path d="M1195 608 c-29 -16 -60 -22 -112 -24 -40 -1 -73 2 -73 5 0 4 -11 8
-26 9 -14 1 -34 6 -44 12 -31 17 -39 12 -65 -37 -14 -27 -30 -55 -37 -65 -10
-13 -4 -29 30 -88 23 -40 42 -78 42 -85 0 -7 7 -15 15 -19 9 -3 15 -19 15 -41
0 -22 4 -34 10 -30 6 3 7 17 4 31 -5 20 -2 24 15 24 12 0 21 6 21 15 0 18 127
111 146 107 8 -2 14 3 14 10 0 7 12 21 25 31 25 18 25 18 25 -8 0 -14 4 -25 8
-25 4 0 6 16 4 35 -2 19 -6 35 -8 35 -2 0 -60 -41 -129 -91 -87 -62 -130 -88
-137 -81 -6 6 -7 15 -4 20 3 6 61 47 129 91 67 44 146 98 175 120 62 49 73 30
13 -21 -27 -23 -37 -38 -32 -47 6 -9 10 -7 14 8 10 40 27 22 27 -29 0 -27 3
-50 8 -50 4 0 5 26 4 57 -4 63 13 66 21 3 2 -19 5 -1 5 41 2 62 -1 79 -16 92
-24 22 -38 21 -87 -5z m49 -28 c-16 -15 -69 -53 -119 -84 -49 -30 -95 -59
-101 -64 -6 -6 -19 -5 -32 2 -20 11 -18 13 27 29 51 18 69 40 50 63 -18 21
-48 18 -42 -5 3 -13 -3 -21 -24 -29 -15 -5 -37 -14 -48 -18 -17 -7 -18 -6 -7
8 7 8 10 24 6 34 -4 14 -3 15 4 5 7 -9 12 -10 16 -2 4 6 1 11 -6 11 -7 0 -2 9
12 20 15 12 18 18 8 14 -10 -3 -18 -2 -18 4 0 11 14 10 43 -3 9 -4 24 -5 32
-1 8 3 15 1 15 -4 0 -6 10 -6 23 -2 26 10 55 8 80 -3 21 -9 71 31 60 48 -3 6
-1 7 5 3 6 -3 13 -2 17 4 4 6 11 7 17 4 6 -4 -2 -18 -18 -34z m-309 6 c40 16
12 -92 -30 -117 -25 -16 -26 -18 -8 -28 12 -7 14 -10 4 -11 -8 0 -12 -2 -9 -5
2 -3 19 0 36 6 25 8 36 8 52 -4 20 -14 19 -15 -21 -41 -22 -15 -42 -26 -44
-24 -11 13 -34 68 -28 68 4 0 -1 6 -12 13 -16 12 -17 18 -7 48 11 31 10 32 -3
15 -23 -30 -18 -8 6 25 11 16 24 27 29 24 15 -10 22 15 9 33 -11 14 -11 15 0
5 7 -6 19 -9 26 -7z m260 -6 c-10 -11 -22 -17 -28 -13 -5 3 1 12 14 19 33 18
35 17 14 -6z m-130 -80 c-9 -15 -138 -61 -154 -55 -14 6 -14 7 2 16 9 6 22 7
27 4 19 -12 100 28 100 49 0 15 3 16 15 6 8 -7 13 -16 10 -20z"/>
<path d="M885 540 c-3 -5 -1 -19 5 -30 8 -15 8 -20 -1 -20 -7 0 -9 -3 -6 -6
11 -11 37 17 36 40 0 11 -3 15 -6 9 -2 -7 -9 -13 -15 -13 -6 0 -8 7 -4 15 6
17 0 20 -9 5z"/>
<path d="M2535 619 c5 -6 55 0 55 7 0 3 -13 3 -29 2 -16 -1 -28 -5 -26 -9z"/>
<path d="M2630 610 c0 -5 5 -10 11 -10 5 0 7 5 4 10 -3 6 -8 10 -11 10 -2 0
-4 -4 -4 -10z"/>
<path d="M2671 593 c-7 -8 -11 -16 -8 -19 2 -2 10 2 17 11 17 20 9 27 -9 8z"/>
<path d="M2794 602 c5 -8 -4 -12 -28 -12 -20 0 -36 -5 -36 -11 0 -5 -4 -8 -10
-4 -5 3 -19 0 -30 -7 -18 -11 -23 -10 -36 6 -13 19 -14 19 -14 -7 0 -32 0 -32
86 -6 76 23 92 33 73 44 -8 5 -10 4 -5 -3z"/>
<path d="M465 591 c-3 -5 -2 -12 3 -15 5 -3 9 1 9 9 0 17 -3 19 -12 6z"/>
<path d="M680 589 c0 -5 -4 -8 -9 -4 -5 3 -16 -1 -24 -9 -8 -8 -17 -12 -21 -9
-3 4 -6 -1 -6 -10 0 -9 5 -19 10 -22 6 -3 10 -15 10 -26 0 -10 5 -19 11 -19 7
0 9 -10 5 -27 -5 -25 -5 -26 5 -9 9 14 9 24 0 37 -16 26 -14 29 13 16 13 -7
22 -15 20 -19 -3 -5 -1 -8 5 -8 5 0 13 5 16 10 4 6 10 8 15 5 4 -3 10 4 13 15
3 10 0 22 -7 25 -6 3 0 3 14 1 23 -5 22 -2 -12 29 -38 35 -58 44 -58 24z m30
-27 c20 -9 24 -52 5 -52 -8 0 -15 5 -15 10 0 6 -11 10 -25 10 -15 0 -25 6 -25
14 0 22 31 31 60 18z"/>
<path d="M678 543 c7 -3 16 -2 19 1 4 3 -2 6 -13 5 -11 0 -14 -3 -6 -6z"/>
<path d="M2580 590 c-9 -6 -10 -10 -3 -10 6 0 15 5 18 10 8 12 4 12 -15 0z"/>
<path d="M2423 563 c-18 -37 -11 -39 11 -3 9 17 14 30 9 30 -4 0 -14 -12 -20
-27z"/>
<path d="M2610 576 c0 -8 -6 -21 -12 -28 -19 -20 -20 -38 -3 -45 14 -5 14 -8
-2 -27 -18 -21 -18 -21 4 -3 14 13 23 15 28 7 5 -8 14 -6 32 6 23 15 25 15 20
1 -3 -9 -1 -19 6 -23 7 -4 9 -4 5 1 -12 12 12 47 28 41 8 -3 14 -1 14 5 0 6 4
7 10 4 6 -3 7 1 4 9 -8 20 -7 20 -54 -4 -42 -22 -75 -26 -85 -10 -3 5 1 25 9
45 8 19 11 35 5 35 -5 0 -9 -6 -9 -14z"/>
<path d="M35 557 c-15 -17 -15 -23 -4 -44 9 -17 19 -23 34 -19 11 3 27 6 35 6
13 0 13 1 0 10 -12 7 -12 12 -2 22 9 9 12 9 12 -2 1 -10 7 -7 21 9 11 13 22
21 26 17 3 -3 -1 -14 -9 -23 -23 -27 -33 -47 -20 -39 8 4 12 0 12 -11 0 -11 5
-24 12 -31 7 -7 9 -12 5 -12 -5 0 -18 11 -30 25 -17 18 -28 23 -49 18 -15 -3
-25 -9 -22 -14 3 -5 10 -7 15 -3 6 3 28 -6 50 -20 21 -15 39 -22 39 -16 0 5 8
10 18 10 22 0 45 36 37 60 -3 11 -9 19 -13 19 -22 -4 -33 3 -30 19 5 26 -13
42 -34 29 -11 -8 -27 -8 -51 0 -30 9 -37 8 -52 -10z m43 -5 c7 -5 10 -16 6
-25 -9 -25 -23 -21 -17 6 5 22 5 22 -10 2 -17 -21 -21 -17 -11 9 7 18 13 19
32 8z m91 -41 c8 -5 11 -16 8 -25 -9 -24 -26 -19 -19 6 3 14 2 19 -6 14 -7 -4
-12 -2 -12 3 0 13 10 14 29 2z m31 -32 c-7 -11 -14 -19 -16 -16 -7 7 7 37 17
37 6 0 5 -9 -1 -21z"/>
<path d="M350 568 c0 -5 -7 -16 -15 -24 -8 -9 -15 -22 -15 -29 0 -18 57 -48
72 -39 8 5 9 1 4 -12 -6 -15 -5 -16 5 -7 9 9 18 9 31 2 11 -6 22 -8 25 -5 4 3
12 1 19 -5 8 -7 14 -7 19 1 7 11 -21 24 -92 41 -50 13 -65 35 -38 55 25 19 40
18 25 -1 -17 -21 -7 -29 60 -50 30 -10 61 -20 68 -23 6 -2 12 2 12 9 0 7 -3 9
-6 6 -4 -4 -19 2 -33 12 -14 10 -32 16 -40 13 -8 -3 -11 0 -7 7 4 7 2 9 -7 5
-8 -3 -18 0 -23 7 -4 7 -3 10 4 5 6 -3 14 -1 18 6 4 7 3 10 -1 5 -5 -4 -15 -1
-24 7 -21 17 -61 27 -61 14z"/>
<path d="M495 570 c-3 -5 -1 -10 4 -10 6 0 11 5 11 10 0 6 -2 10 -4 10 -3 0
-8 -4 -11 -10z"/>
<path d="M750 570 c0 -5 7 -7 15 -4 8 4 15 8 15 10 0 2 -7 4 -15 4 -8 0 -15
-4 -15 -10z"/>
<path d="M2783 563 c-18 -9 -33 -20 -33 -25 0 -16 25 -8 54 17 33 28 26 31
-21 8z"/>
<path d="M1507 533 c-12 -21 -18 -73 -8 -73 6 0 12 6 12 13 1 6 3 24 5 40 3
27 -1 34 -9 20z"/>
<path d="M1526 524 c-4 -9 -2 -13 5 -8 8 4 9 -3 4 -26 -5 -24 -4 -31 5 -28 19
6 24 78 6 78 -7 0 -17 -7 -20 -16z"/>
<path d="M1785 524 c-20 -20 -16 -58 7 -62 10 -2 29 8 43 22 32 32 35 32 36
-1 l1 -28 8 25 c13 40 11 53 -5 47 -8 -4 -17 -2 -20 4 -4 5 -11 7 -16 3 -5 -3
-7 -10 -3 -15 9 -15 -16 -39 -40 -38 -14 0 -16 2 -6 6 27 10 39 24 33 39 -7
18 -18 18 -38 -2z m20 -13 c-3 -6 -11 -11 -17 -11 -6 0 -6 6 2 15 14 17 26 13
15 -4z"/>
<path d="M2835 529 c-4 -6 -13 -8 -21 -5 -8 3 -14 1 -14 -4 0 -6 10 -10 22
-10 21 0 17 -15 -5 -15 -7 -1 -11 -7 -9 -14 1 -7 -7 -15 -18 -18 -11 -3 -17
-10 -14 -15 4 -5 -9 -25 -27 -44 -27 -28 -30 -34 -16 -40 9 -3 31 -1 48 5 42
14 44 14 28 -6 -11 -15 -10 -15 8 1 21 18 24 18 48 2 14 -9 25 -21 25 -27 0
-8 4 -8 13 0 8 6 18 7 23 3 5 -4 6 -3 2 2 -4 4 -2 19 3 33 7 18 6 24 -3 21 -7
-3 -23 6 -35 18 -21 21 -22 25 -9 62 11 29 11 43 3 51 -14 14 -44 14 -52 0z
m30 -39 c-8 -16 -15 -37 -15 -48 0 -20 42 -62 62 -62 9 0 9 -3 1 -11 -9 -9
-16 -8 -28 5 -35 35 -53 38 -95 16 -22 -11 -40 -17 -40 -12 0 5 17 17 37 28
20 10 39 26 41 34 4 11 -2 9 -19 -5 -24 -20 -24 -20 1 10 14 16 29 33 33 36 5
3 10 15 12 25 2 10 4 20 4 22 1 2 5 0 11 -3 6 -4 4 -17 -5 -35z"/>
<path d="M2506 469 c2 -4 -4 -9 -15 -11 -14 -2 -16 -6 -7 -14 9 -8 16 -5 28
11 13 17 14 22 3 22 -8 0 -12 -4 -9 -8z"/>
<path d="M715 460 c-3 -6 1 -7 9 -4 18 7 21 14 7 14 -6 0 -13 -4 -16 -10z"/>
<path d="M2435 449 c-4 -6 -5 -12 -2 -15 2 -3 7 2 10 11 7 17 1 20 -8 4z"/>
<path d="M670 430 c-9 -6 -10 -10 -3 -10 6 0 15 5 18 10 8 12 4 12 -15 0z"/>
<path d="M2461 430 c-9 -5 -5 -9 10 -13 28 -7 31 -6 14 10 -6 6 -18 8 -24 3z"/>
<path d="M2618 433 c7 -3 16 -2 19 1 4 3 -2 6 -13 5 -11 0 -14 -3 -6 -6z"/>
<path d="M558 423 c7 -3 16 -2 19 1 4 3 -2 6 -13 5 -11 0 -14 -3 -6 -6z"/>
<path d="M2400 423 c0 -7 -6 -10 -14 -7 -8 3 -17 1 -21 -5 -3 -6 2 -11 12 -12
47 -2 65 -7 73 -18 5 -9 9 -7 12 6 4 15 -1 19 -20 21 -14 1 -29 8 -34 15 -6 9
-8 9 -8 0z"/>
<path d="M2520 421 c0 -6 4 -13 10 -16 6 -3 7 1 4 9 -7 18 -14 21 -14 7z"/>
<path d="M230 411 c-8 -6 -18 -7 -22 -5 -4 3 -8 0 -8 -5 0 -6 -8 -11 -18 -11
-11 0 -26 -8 -35 -18 -18 -19 -12 -60 17 -122 16 -33 17 -33 13 -7 -3 20 -1
25 6 18 6 -6 11 -21 12 -33 1 -13 7 -23 14 -23 6 0 17 -11 24 -25 15 -31 51
-33 89 -6 23 17 25 22 15 40 -6 12 -10 44 -9 71 1 28 -1 44 -4 37 -11 -24 -23
-1 -13 25 7 19 6 28 -2 34 -6 4 -9 11 -5 17 12 19 -47 29 -74 13z m59 -58 c2
-21 -16 -15 -22 7 -5 20 -27 28 -27 10 0 -5 5 -10 11 -10 7 0 9 -9 6 -21 -4
-15 -2 -19 9 -15 19 7 36 -28 30 -65 -6 -39 2 -59 20 -52 21 8 17 -5 -6 -17
-17 -9 -22 -7 -30 16 -6 15 -13 24 -16 21 -3 -3 -1 -14 5 -25 14 -26 14 -32 1
-32 -6 0 -15 12 -21 27 -8 22 -7 30 6 40 10 7 14 17 9 24 -5 9 -10 6 -15 -9
-12 -31 -33 -27 -46 7 -9 24 -8 31 4 36 9 3 21 0 29 -6 10 -8 13 -6 11 10 -1
22 -21 28 -32 11 -4 -6 -11 -7 -17 -4 -6 4 -14 0 -19 -7 -11 -18 -16 -11 -21
26 -2 22 1 31 15 33 10 2 17 -3 17 -12 0 -8 5 -18 12 -22 8 -5 9 -2 4 12 -4
10 -8 21 -9 24 -1 3 2 6 7 7 5 1 12 5 15 10 3 5 17 13 31 19 22 10 26 8 32
-10 3 -11 6 -27 7 -33z"/>
<path d="M220 340 c0 -5 5 -10 10 -10 6 0 10 5 10 10 0 6 -4 10 -10 10 -5 0
-10 -4 -10 -10z"/>
<path d="M260 303 c0 -4 5 -15 10 -23 8 -13 10 -13 10 2 0 9 -4 20 -10 23 -5
3 -10 3 -10 -2z"/>
<path d="M221 264 c0 -11 3 -14 6 -6 3 7 2 16 -1 19 -3 4 -6 -2 -5 -13z"/>
<path d="M713 385 c0 -8 3 -13 5 -10 3 3 12 -1 21 -7 10 -8 9 -4 -3 10 -23 26
-23 26 -23 7z"/>
<path d="M2390 369 c0 -5 5 -7 10 -4 6 3 10 8 10 11 0 2 -4 4 -10 4 -5 0 -10
-5 -10 -11z"/>
<path d="M576 352 c-3 -4 4 -9 15 -9 23 -2 25 3 4 10 -8 4 -16 3 -19 -1z"/>
<path d="M2415 339 c-4 -6 -5 -12 -2 -15 2 -3 7 2 10 11 7 17 1 20 -8 4z"/>
<path d="M416 329 c3 -5 0 -9 -5 -9 -17 0 -13 -17 5 -24 8 -3 12 -2 9 4 -3 6
-3 15 1 21 4 8 9 8 13 1 4 -7 12 -8 21 -2 13 9 13 10 0 11 -8 0 -23 2 -33 4
-9 2 -15 -1 -11 -6z"/>
<path d="M2449 313 c-13 -16 -12 -17 4 -4 16 13 21 21 13 21 -2 0 -10 -8 -17
-17z"/>
<path d="M705 310 c3 -5 8 -10 11 -10 2 0 4 5 4 10 0 6 -5 10 -11 10 -5 0 -7
-4 -4 -10z"/>
<path d="M1130 305 c-11 -13 -10 -14 4 -9 9 3 16 10 16 15 0 13 -6 11 -20 -6z"/>
<path d="M1323 273 c-37 -60 -45 -91 -31 -117 14 -27 48 -60 48 -46 0 5 5 10
10 10 6 0 11 -26 12 -57 1 -44 2 -49 6 -23 5 33 5 34 12 10 7 -23 8 -23 9 8 1
37 16 72 31 72 6 0 10 -7 10 -15 0 -8 5 -15 10 -15 6 0 10 10 10 22 0 16 3 19
11 11 6 -6 10 -32 8 -57 -3 -28 -1 -42 5 -36 5 5 9 34 7 64 -2 48 0 55 19 61
12 4 19 9 17 12 -3 2 -23 -4 -44 -15 -21 -11 -50 -25 -65 -31 -15 -6 -28 -20
-31 -33 -4 -20 -4 -19 -6 6 -1 23 -5 27 -21 23 -23 -6 -43 14 -34 36 3 8 1 18
-4 21 -13 8 1 61 16 61 7 0 11 -3 10 -7 -6 -15 43 -39 70 -35 25 4 25 4 -5 6
-25 1 -36 8 -46 29 -14 28 -12 62 4 62 5 0 9 5 9 10 0 23 -20 7 -47 -37z"/>
<path d="M2059 290 c-7 -35 -4 -48 7 -38 3 4 4 21 2 40 l-3 33 -6 -35z"/>
<path d="M2646 301 c-27 -30 -17 -64 22 -72 17 -4 32 -3 32 2 0 5 6 9 13 9 19
0 67 24 67 33 0 5 4 6 9 2 5 -3 12 -1 16 5 9 15 -9 12 -67 -10 -80 -30 -106
-24 -78 20 8 13 10 12 10 -2 0 -22 -1 -22 68 -1 49 14 54 17 32 23 -14 3 -36
0 -50 -7 -21 -11 -27 -11 -36 2 -14 19 -17 19 -38 -4z"/>
<path d="M462 303 c-7 -2 -17 -14 -23 -26 -9 -21 -9 -21 5 -4 8 10 18 18 22
17 5 -1 10 3 12 9 4 12 3 12 -16 4z"/>
<path d="M576 287 c-16 -13 -30 -32 -31 -43 -5 -42 -15 -78 -25 -88 -5 -5 -10
-14 -10 -18 0 -12 30 -10 31 2 2 13 3 17 19 78 14 52 31 74 23 28 -7 -37 13
-64 53 -72 20 -4 32 -10 27 -15 -5 -5 -24 -4 -43 1 -29 8 -38 7 -54 -10 -25
-25 -13 -39 14 -15 14 12 23 15 32 8 7 -6 22 -9 33 -7 11 1 23 -2 27 -9 4 -7
8 2 8 21 0 17 5 32 11 32 5 0 7 5 3 11 -5 8 -8 8 -14 0 -9 -15 -50 0 -70 25
-8 10 -10 15 -3 11 6 -4 14 -3 18 3 3 5 0 10 -8 10 -11 0 -14 10 -13 35 1 19
1 35 1 35 0 0 -13 -11 -29 -23z"/>
<path d="M2314 289 c-3 -5 -10 -7 -15 -4 -5 4 -9 -1 -9 -11 0 -14 -2 -15 -17
-3 -16 12 -16 11 0 -8 20 -23 9 -39 -21 -29 -9 4 -3 -5 13 -19 17 -15 25 -24
19 -21 -24 12 -36 -20 -20 -57 8 -20 12 -38 9 -40 -8 -9 -11 -77 -2 -72 4 3
13 0 21 -7 7 -7 37 -14 66 -15 46 -2 53 0 48 14 -4 9 -1 20 6 25 10 5 8 8 -5
8 -10 0 -15 5 -12 11 4 6 14 8 22 5 8 -3 11 -1 8 4 -3 5 -1 19 5 30 9 17 14
19 25 10 11 -9 12 -7 8 12 -3 13 -11 29 -16 36 -6 7 -6 12 -1 10 5 -2 19 7 32
20 12 12 18 22 13 22 -5 0 -4 11 2 24 7 13 16 22 22 18 5 -3 2 4 -9 16 -15 17
-28 21 -67 19 -27 -2 -52 -1 -54 2 -10 9 -65 10 -71 0z m42 -41 c-5 -33 -5
-33 6 -6 11 25 15 27 57 22 60 -7 61 -8 48 -49 -13 -44 -40 -49 -27 -5 5 17 7
30 5 30 -2 0 -12 3 -22 7 -16 6 -16 5 -4 -10 7 -9 11 -24 7 -32 -6 -17 -46
-21 -46 -5 0 6 7 10 16 10 14 0 14 2 3 16 -12 14 -14 14 -21 -5 -9 -26 -48
-28 -49 -3 0 10 -3 12 -6 5 -6 -15 -33 -17 -33 -3 0 6 5 10 10 10 6 0 10 8 10
18 0 24 8 32 32 32 16 0 19 -5 14 -32z m139 22 c3 -6 -1 -7 -9 -4 -18 7 -21
14 -7 14 6 0 13 -4 16 -10z m-134 -113 l0 -22 10 23 c6 17 15 22 31 20 31 -4
35 -41 9 -67 -12 -12 -21 -26 -21 -32 0 -5 -4 -8 -9 -5 -5 3 -11 -5 -13 -18
-4 -17 -1 -23 9 -19 7 3 13 0 13 -6 0 -6 -12 -11 -26 -11 -24 0 -26 3 -20 30
3 17 1 30 -4 30 -6 0 -10 -11 -10 -25 0 -16 -6 -25 -16 -25 -11 0 -14 6 -9 23
4 12 9 29 11 39 3 9 0 19 -6 23 -10 6 -6 56 7 78 8 14 43 -14 44 -36z m-69 1
c-2 -10 -9 -21 -15 -25 -6 -4 -8 0 -4 10 3 10 2 17 -3 17 -6 0 -10 4 -10 9 0
6 8 9 19 8 12 -1 17 -7 13 -19z m8 -67 c0 -6 -5 -13 -10 -16 -6 -4 -8 -11 -5
-16 4 -5 1 -9 -4 -9 -14 0 -14 17 -1 25 6 4 8 11 5 16 -4 5 -1 9 4 9 6 0 11
-4 11 -9z"/>
<path d="M2327 150 c-3 -11 -1 -20 4 -20 5 0 9 9 9 20 0 11 -2 20 -4 20 -2 0
-6 -9 -9 -20z"/>
<path d="M2386 144 c-8 -21 -8 -24 3 -24 5 0 11 9 14 20 6 24 -8 27 -17 4z"/>
<path d="M2340 115 c-10 -13 -9 -15 8 -15 15 0 20 5 16 15 -4 8 -7 15 -9 15
-1 0 -8 -7 -15 -15z"/>
<path d="M650 286 c0 -2 7 -7 16 -10 8 -3 12 -2 9 4 -6 10 -25 14 -25 6z"/>
<path d="M1695 283 c-11 -3 -24 -9 -29 -14 -5 -4 8 -3 30 2 58 16 57 26 -1 12z"/>
<path d="M1758 281 c-1 -6 -19 -13 -38 -16 -19 -3 -40 -12 -46 -20 -5 -7 -26
-18 -45 -23 -18 -6 -26 -11 -17 -11 10 -1 18 -12 21 -28 4 -26 4 -26 6 5 2 49
19 38 24 -15 l3 -48 2 51 c2 55 19 80 49 72 10 -3 29 6 43 19 13 12 19 23 13
23 -6 0 -13 -4 -15 -9z"/>
<path d="M2518 283 c7 -3 16 -2 19 1 4 3 -2 6 -13 5 -11 0 -14 -3 -6 -6z"/>
<path d="M2895 280 c-3 -5 -1 -10 4 -10 6 0 11 5 11 10 0 6 -2 10 -4 10 -3 0
-8 -4 -11 -10z"/>
<path d="M1160 276 c0 -2 7 -7 16 -10 8 -3 12 -2 9 4 -6 10 -25 14 -25 6z"/>
<path d="M1095 241 c-6 -11 9 -23 19 -14 9 9 7 23 -3 23 -6 0 -12 -4 -16 -9z"/>
<path d="M2166 225 c-3 -8 -1 -15 4 -15 6 0 10 7 10 15 0 8 -2 15 -4 15 -2 0
-6 -7 -10 -15z"/>
<path d="M1238 206 c-15 -8 -28 -12 -31 -10 -2 2 -12 -5 -22 -16 -11 -12 -13
-20 -6 -20 7 0 9 -5 5 -12 -4 -7 -3 -8 4 -4 7 4 12 13 12 21 0 11 20 25 36 25
2 0 4 -10 3 -22 0 -13 -3 -17 -6 -10 -2 6 -9 12 -14 12 -6 0 -7 -5 -3 -11 3
-6 0 -16 -7 -21 -10 -7 -4 -8 19 -4 29 5 46 -8 21 -16 -7 -2 -5 -9 5 -17 14
-12 16 -12 10 3 -4 11 -1 16 12 16 14 0 16 2 6 9 -8 4 -13 11 -13 15 3 23 0
30 -9 16 -8 -12 -10 -11 -10 7 0 12 5 23 12 25 6 2 9 9 7 16 -3 9 -11 8 -31
-2z"/>
<path d="M1556 191 c-10 -11 -16 -26 -13 -33 3 -8 6 -6 6 5 1 10 6 15 11 12 6
-3 10 0 10 9 0 8 6 17 13 19 7 3 7 6 1 6 -6 1 -19 -8 -28 -18z"/>
<path d="M1796 188 c3 -5 10 -6 15 -3 13 9 11 12 -6 12 -8 0 -12 -4 -9 -9z"/>
<path d="M90 181 c-8 -6 -18 -7 -24 -4 -5 3 -6 1 -2 -5 4 -7 1 -12 -8 -12 -21
0 -39 -37 -32 -66 7 -28 25 -30 65 -9 16 8 32 11 36 7 5 -4 5 -2 2 5 -4 6 -3
13 2 15 9 3 14 29 12 63 -2 19 -2 19 -12 2 -6 -9 -8 -25 -5 -35 5 -14 -4 -23
-38 -39 l-44 -22 -4 24 c-4 18 3 27 33 45 38 21 58 40 42 40 -4 0 -15 -4 -23
-9z"/>
<path d="M556 173 c-6 -14 -5 -15 5 -6 7 7 10 15 7 18 -3 3 -9 -2 -12 -12z"/>
<path d="M1062 170 c0 -14 2 -19 5 -12 2 6 2 18 0 25 -3 6 -5 1 -5 -13z"/>
<path d="M1741 181 c-8 -6 -9 -11 -3 -15 6 -3 14 -1 17 5 9 14 2 20 -14 10z"/>
<path d="M2018 168 c-14 -14 -18 -23 -10 -26 7 -2 10 -8 6 -13 -3 -5 0 -9 6
-9 6 0 9 -4 6 -9 -3 -5 9 -7 27 -4 17 2 49 5 69 6 21 1 38 6 38 11 0 4 7 6 14
3 10 -4 13 -1 10 7 -4 9 -17 11 -52 5 -79 -13 -102 -11 -102 9 0 10 5 23 12
30 7 7 9 12 5 12 -4 0 -17 -10 -29 -22z"/>
<path d="M2585 181 c-11 -5 -24 -6 -30 -3 -6 3 -6 1 -2 -4 5 -5 14 -9 20 -9 7
-1 11 -7 9 -15 -2 -8 0 -11 5 -7 4 5 8 12 8 15 0 4 4 13 8 20 9 14 9 14 -18 3z"/>
<path d="M2056 173 c-13 -14 -5 -23 22 -23 42 0 102 12 102 20 0 8 -69 5 -77
-4 -3 -3 -13 -1 -23 4 -10 5 -20 6 -24 3z"/>
<path d="M2476 165 c-11 -8 -15 -15 -9 -15 6 0 16 7 23 15 16 19 11 19 -14 0z"/>
<path d="M2221 154 c0 -11 3 -14 6 -6 3 7 2 16 -1 19 -3 4 -6 -2 -5 -13z"/>
<path d="M760 150 c-9 -6 -10 -10 -3 -10 6 0 15 5 18 10 8 12 4 12 -15 0z"/>
<path d="M1695 149 c-4 -6 -5 -12 -2 -15 2 -3 7 2 10 11 7 17 1 20 -8 4z"/>
<path d="M2783 154 c4 -4 -2 -14 -14 -22 -16 -11 -17 -17 -8 -28 6 -8 8 -14 3
-15 -11 -1 55 -20 78 -22 9 -1 15 -4 12 -8 -2 -4 3 -10 11 -13 12 -4 13 -2 6
13 -6 10 -25 22 -43 25 -18 3 -40 11 -48 16 -13 9 -11 13 9 29 22 17 22 18 5
25 -10 4 -15 4 -11 0z"/>
<path d="M915 141 c-3 -5 -1 -12 5 -16 5 -3 10 1 10 9 0 18 -6 21 -15 7z"/>
<path d="M2813 131 c-11 -18 -8 -21 34 -35 45 -16 46 -16 28 4 -9 10 -22 18
-29 17 -6 -1 -10 6 -10 16 2 22 -8 22 -23 -2z"/>
<path d="M595 130 c-3 -5 -1 -10 4 -10 6 0 11 5 11 10 0 6 -2 10 -4 10 -3 0
-8 -4 -11 -10z"/>
<path d="M1780 132 c0 -5 7 -9 15 -9 8 0 12 4 9 9 -7 10 -24 10 -24 0z"/>
<path d="M1851 83 c-47 -64 -52 -87 -19 -74 12 4 24 14 26 22 4 11 2 12 -9 1
-23 -21 -31 -13 -9 10 11 12 20 26 20 30 0 5 4 6 10 3 5 -3 12 6 16 20 3 14
10 25 15 25 12 0 11 -7 -2 -32 -6 -11 -12 -31 -14 -44 -3 -29 21 -52 36 -37 8
8 7 13 0 17 -6 4 -11 12 -11 17 0 6 6 7 13 3 8 -6 8 -3 -1 9 -8 9 -10 22 -6
29 15 23 13 38 -6 48 -16 9 -25 1 -59 -47z"/>
<path d="M527 105 c-17 -12 -16 -13 7 -11 25 1 34 10 18 20 -4 2 -15 -2 -25
-9z"/>
<path d="M806 108 c3 -4 11 -5 19 -1 21 7 19 12 -4 10 -11 0 -18 -5 -15 -9z"/>
<path d="M1714 112 c-6 -4 -16 -18 -23 -32 l-12 -25 18 21 c10 12 25 24 33 26
8 2 10 7 4 11 -5 3 -15 3 -20 -1z"/>
<path d="M1120 90 c-8 -5 -10 -10 -5 -10 6 0 17 5 25 10 8 5 11 10 5 10 -5 0
-17 -5 -25 -10z"/>
<path d="M2180 96 c0 -2 9 -6 20 -9 11 -3 18 -1 14 4 -5 9 -34 13 -34 5z"/>
<path d="M847 69 c7 -7 15 -10 18 -7 3 3 -2 9 -12 12 -14 6 -15 5 -6 -5z"/>
<path d="M905 71 c-3 -5 -2 -12 3 -15 5 -3 9 1 9 9 0 17 -3 19 -12 6z"/>
<path d="M1132 52 c-23 -28 -29 -52 -13 -52 5 0 12 9 16 19 3 12 19 21 40 25
39 8 60 29 24 25 -13 -2 -29 -1 -34 3 -6 3 -20 -6 -33 -20z"/>
<path d="M1741 66 c-9 -11 -9 -16 0 -22 7 -4 9 -3 5 4 -3 5 0 12 6 15 7 2 10
7 7 11 -3 4 -12 0 -18 -8z"/>
<path d="M519 56 c20 -11 21 -14 7 -25 -20 -17 -20 -31 0 -31 8 0 13 4 9 9 -3
5 -1 12 4 15 5 4 12 2 16 -4 3 -5 16 -10 28 -9 21 0 21 1 -2 10 -16 6 -21 13
-14 20 6 6 21 4 44 -5 19 -9 28 -15 22 -16 -7 0 -13 -4 -13 -8 0 -12 39 -12
46 0 4 6 2 8 -4 4 -6 -3 -13 2 -17 13 -6 21 -41 32 -109 36 -36 3 -38 2 -17
-9z"/>
<path d="M1095 59 c-11 -16 -1 -19 13 -3 7 8 8 14 3 14 -5 0 -13 -5 -16 -11z"/>
<path d="M1216 47 c-17 -13 -18 -14 -2 -20 10 -4 14 -12 10 -18 -4 -7 -2 -10
6 -7 16 5 23 38 9 38 -6 0 -7 5 -4 10 8 14 2 13 -19 -3z"/>
<path d="M2231 37 c-13 -21 -12 -21 5 -5 10 10 16 20 13 22 -3 3 -11 -5 -18
-17z"/>
<path d="M360 38 c0 -10 -4 -18 -10 -18 -5 0 -10 -5 -10 -11 0 -8 4 -8 15 1 9
8 28 9 57 5 36 -6 41 -5 31 7 -7 7 -25 13 -40 12 -15 0 -31 4 -35 10 -5 7 -8
4 -8 -6z"/>
<path d="M810 46 c0 -2 7 -7 16 -10 8 -3 12 -2 9 4 -6 10 -25 14 -25 6z"/>
<path d="M1000 41 c0 -6 4 -13 10 -16 6 -3 7 1 4 9 -7 18 -14 21 -14 7z"/>
<path d="M1507 32 c3 -7 9 -10 12 -5 3 4 10 11 15 15 4 4 -1 6 -12 5 -12 -1
-18 -6 -15 -15z"/>
<path d="M1695 40 c-3 -5 -1 -10 4 -10 6 0 11 5 11 10 0 6 -2 10 -4 10 -3 0
-8 -4 -11 -10z"/>
<path d="M1046 23 c-6 -14 -5 -15 5 -6 7 7 10 15 7 18 -3 3 -9 -2 -12 -12z"/>
<path d="M137 15 c-3 -6 3 -11 12 -11 10 0 18 5 18 11 0 15 -25 15 -30 0z"/>
<path d="M905 20 c3 -5 8 -10 11 -10 2 0 4 5 4 10 0 6 -5 10 -11 10 -5 0 -7
-4 -4 -10z"/>
<path d="M1440 21 c0 -6 4 -13 10 -16 6 -3 7 1 4 9 -7 18 -14 21 -14 7z"/>
<path d="M1146 12 c-3 -5 8 -9 25 -9 19 0 25 3 17 9 -17 10 -35 10 -42 0z"/>
<path d="M1398 3 c7 -3 16 -2 19 1 4 3 -2 6 -13 5 -11 0 -14 -3 -6 -6z"/>
</g>
</svg>
